<svg xmlns="http://www.w3.org/2000/svg" xmlns:xlink="http://www.w3.org/1999/xlink" width="1366" zoomAndPan="magnify" viewBox="0 0 1024.5 576" height="768" preserveAspectRatio="xMidYMid meet" version="1.0"><defs><clipPath id="a54aca090a"><path d="M 0 0.140625 L 1024 0.140625 L 1024 575.859375 L 0 575.859375 Z M 0 0.140625 " clip-rule="nonzero"/></clipPath><clipPath id="d8c46545cd"><path d="M 0 0.140625 L 1024 0.140625 L 1024 575.859375 L 0 575.859375 Z M 0 0.140625 " clip-rule="nonzero"/></clipPath><clipPath id="24fc512b94"><rect x="0" width="1024" y="0" height="576"/></clipPath><clipPath id="7dd7ecb060"><path d="M 0 193.921875 L 1024 193.921875 L 1024 377.527344 L 0 377.527344 Z M 0 193.921875 " clip-rule="nonzero"/></clipPath><clipPath id="ccfa2b0a7c"><path d="M 0 0.921875 L 1024 0.921875 L 1024 184.527344 L 0 184.527344 Z M 0 0.921875 " clip-rule="nonzero"/></clipPath><clipPath id="b8851b47c6"><rect x="0" width="1024" y="0" height="185"/></clipPath><clipPath id="7ca9088380"><path d="M 0 117.332031 L 1024 117.332031 L 1024 458.417969 L 0 458.417969 Z M 0 117.332031 " clip-rule="nonzero"/></clipPath></defs><g clip-path="url(#a54aca090a)"><path fill="#ffffff" d="M 0 0.140625 L 1024 0.140625 L 1024 575.859375 L 0 575.859375 Z M 0 0.140625 " fill-opacity="1" fill-rule="nonzero"/><path fill="#dcdee1" d="M 0 0.140625 L 1024 0.140625 L 1024 575.859375 L 0 575.859375 Z M 0 0.140625 " fill-opacity="1" fill-rule="nonzero"/><g transform="matrix(1, 0, 0, 1, 0, -0.000000000000058398)"><g clip-path="url(#24fc512b94)"><g clip-path="url(#d8c46545cd)"><rect x="-225.39" width="1475.28" fill="#020912" height="829.44" y="-126.72" fill-opacity="1"/></g></g></g></g><g clip-path="url(#7dd7ecb060)"><g transform="matrix(1, 0, 0, 1, 0, 193)"><g clip-path="url(#b8851b47c6)"><g clip-path="url(#ccfa2b0a7c)"><path fill="#d9d9d9" d="M 0 0.921875 L 1024.171875 0.921875 L 1024.171875 184.527344 L 0 184.527344 Z M 0 0.921875 " fill-opacity="1" fill-rule="nonzero"/></g></g></g></g><g clip-path="url(#7ca9088380)"><path fill="#020912" d="M 1023.996094 117.332031 L 0.00390625 117.332031 L 0.00390625 458.664062 L 1023.996094 458.664062 Z M 1008.480469 368.640625 C 1010.761719 368.640625 1012.617188 366.792969 1012.617188 364.324219 C 1012.617188 361.980469 1010.761719 360.007812 1008.339844 360.007812 L 920.070312 360.007812 L 920.070312 207.042969 C 920.214844 206.550781 920.214844 206.179688 920.070312 205.6875 C 919.644531 203.714844 917.363281 202.355469 915.082031 202.726562 C 912.800781 203.097656 911.230469 205.070312 911.65625 207.042969 L 911.65625 364.324219 C 911.515625 366.421875 913.363281 368.394531 915.933594 368.640625 Z M 797.242188 206.984375 L 797.242188 316.277344 C 798.238281 345.265625 772.003906 369.445312 738.488281 370.308594 C 704.980469 371.171875 677.027344 348.472656 676.03125 319.484375 L 676.03125 206.984375 C 676.175781 204.515625 678.601562 202.664062 681.3125 202.789062 C 683.875 202.914062 686.015625 204.640625 686.15625 206.984375 L 686.15625 316.277344 C 685.730469 340.453125 707.972656 360.316406 735.78125 360.683594 C 763.730469 361.054688 786.691406 341.8125 787.117188 317.757812 L 787.117188 206.984375 C 787.117188 204.515625 789.398438 202.664062 792.113281 202.664062 C 794.960938 202.664062 797.242188 204.640625 797.242188 206.984375 Z M 511.238281 290.003906 C 539.042969 290.003906 561.71875 270.511719 561.71875 246.335938 C 561.71875 222.28125 539.042969 202.664062 511.09375 202.664062 L 415.554688 202.664062 C 415.125 202.664062 414.84375 202.664062 414.414062 202.789062 C 412.132812 203.28125 410.421875 205.007812 410.421875 207.105469 C 410.5625 209.449219 412.703125 211.425781 415.554688 211.425781 L 511.09375 211.425781 C 533.484375 211.425781 551.59375 226.964844 551.59375 246.335938 C 551.59375 265.699219 533.625 281.367188 511.238281 281.367188 L 415.554688 281.367188 C 412.84375 281.367188 410.707031 283.21875 410.5625 285.5625 L 410.5625 364.386719 C 410.5625 366.730469 412.703125 368.828125 415.554688 368.828125 C 418.265625 368.828125 420.6875 366.976562 420.6875 364.507812 L 420.6875 290.003906 Z M 296.105469 206.867188 L 296.105469 364.269531 C 295.964844 366.734375 293.539062 368.585938 290.828125 368.460938 C 288.261719 368.339844 286.125 366.613281 285.980469 364.269531 L 285.980469 206.867188 C 286.125 204.398438 288.546875 202.546875 291.257812 202.671875 C 293.964844 202.917969 295.964844 204.644531 296.105469 206.867188 Z M 91.523438 368.703125 C 135.726562 368.703125 171.664062 349.214844 171.664062 325.035156 C 171.664062 307.765625 153.125 292.714844 126.460938 285.683594 C 153.265625 278.652344 171.664062 263.605469 171.664062 246.335938 C 171.664062 222.28125 135.726562 202.664062 91.523438 202.664062 L 15.375 202.664062 C 13.09375 202.664062 11.382812 204.515625 11.382812 206.984375 C 11.382812 209.449219 13.09375 211.425781 15.375 211.425781 L 91.523438 211.425781 C 131.308594 211.425781 163.675781 226.84375 163.675781 246.210938 C 163.675781 265.578125 131.308594 281.242188 91.523438 281.242188 L 47.460938 281.242188 C 46.605469 281.242188 45.75 281.492188 45.179688 281.984375 C 45.125 282.03125 45.070312 282.058594 45.023438 282.085938 C 44.949219 282.125 44.894531 282.15625 44.894531 282.230469 C 42.753906 284.328125 42.898438 287.410156 45.179688 289.386719 C 45.890625 289.878906 46.605469 290.125 47.460938 290.125 L 91.523438 290.125 C 131.308594 290.125 163.675781 305.667969 163.675781 325.035156 C 163.675781 344.402344 131.308594 360.070312 91.523438 360.070312 L 15.375 360.070312 C 13.09375 360.070312 11.382812 362.042969 11.382812 364.386719 C 11.382812 366.730469 13.09375 368.703125 15.375 368.703125 Z M 91.523438 368.703125 " fill-opacity="1" fill-rule="evenodd"/></g></svg>